<svg xmlns="http://www.w3.org/2000/svg" xmlns:xlink="http://www.w3.org/1999/xlink" fill="none" version="1.1" width="2134" height="2134" viewBox="0 0 2134 2134"><g><rect x="0" y="0" width="2134" height="2134" rx="0" fill="#FFFFFF" fill-opacity="1"/><g><g style="opacity:0;"><rect x="0" y="0" width="2134" height="2134" rx="12" fill="#FFFFFF" fill-opacity="1"/><rect x="0.5" y="0.5" width="2133" height="2133" rx="11.5" fill-opacity="0" stroke-opacity="0" stroke="#EAEDF0" fill="none" stroke-width="1"/></g><g><g style="opacity:0;"><rect x="4" y="0" width="2130" height="2130" rx="0" fill="#D8D8D8" fill-opacity="1"/></g><g><path d="M1697.4999694824219,851.2649847412109L1327.7879694824219,1064.999984741211L1697.899969482422,1278.3399847412109C1705.0899694824218,1282.3499847412108,1709.6099694824218,1289.789984741211,1709.7999694824218,1297.929984741211L1709.7999694824218,1538.899984741211C1709.8599694824218,1546.8599847412108,1705.729969482422,1554.269984741211,1698.889969482422,1558.489984741211L1084.8849694824219,1913.0799847412109C1081.0509694824218,1915.769984741211,1076.4909694824219,1917.279984741211,1071.786969482422,1917.389984741211L826.8999694824219,1917.389984741211C813.7479694824219,1917.389984741211,803.0859694824219,1906.8699847412108,803.0859694824219,1893.879984741211L803.0859694824219,1652.529984741211C803.2739694824219,1644.479984741211,807.6159694824219,1637.0899847412109,814.5959694824219,1632.929984741211L1185.1019694824217,1419.399984741211L816.3819694824219,1206.0529847412108C808.9439694824218,1202.192984741211,804.1169694824218,1194.7469847412108,803.6809694824219,1186.461984741211L803.6809694824219,944.516984741211C804.0359694824219,936.3139847412109,808.6999694824219,928.8869847412109,815.9849694824219,924.925984741211L1186.093969482422,710.9959847412109L816.3819694824219,498.04498474121095C808.9429694824219,494.18398474121096,804.1169694824218,486.7389847412109,803.6809694824219,478.45398474121095L803.6809694824219,236.50888474121095C803.6769694824219,223.75138474121093,813.9809694824219,213.31893774121093,826.8999694824219,212.99998474121094L1071.5889694824218,212.99998474121094C1075.2469694824217,213.03317444121095,1078.8479694824218,213.90502674121095,1082.1069694824218,215.54677474121092L1697.2999694824218,570.334984741211C1704.5699694824218,574.286984741211,1709.169969482422,581.738984741211,1709.409969482422,589.9249847412109L1709.409969482422,831.282984741211C1709.3099694824218,839.5579847412109,1704.7799694824218,847.162984741211,1697.4999694824219,851.2649847412109ZM587.5689694824218,461.4099847412109L460.7596694824219,461.4099847412109C443.69296948242186,461.4099847412109,429.9999694824219,470.0299847412109,429.9999694824219,481.0009847412109L429.9999694824219,862.431984741211C429.9999694824219,873.0109847412109,443.6930694824219,882.022984741211,460.7596694824219,882.022984741211L587.5689694824218,882.022984741211C604.6359694824218,882.022984741211,618.3289694824218,873.402984741211,618.3289694824218,862.431984741211L618.3289694824218,480.80498474121094C618.3289694824218,470.0299847412109,604.6359694824218,461.4099847412109,587.5689694824218,461.4099847412109ZM587.5689694824218,1248.3699847412108L460.7596694824219,1248.3699847412108C443.69296948242186,1248.3699847412108,429.9999694824219,1256.989984741211,429.9999694824219,1267.959984741211L429.9999694824219,1649.189984741211C429.9999694824219,1659.769984741211,443.6930694824219,1668.789984741211,460.7596694824219,1668.789984741211L587.5689694824218,1668.789984741211C604.6359694824218,1668.789984741211,618.3289694824218,1660.169984741211,618.3289694824218,1649.189984741211L618.3289694824218,1267.5699847412109C618.3289694824218,1256.989984741211,604.6359694824218,1248.3699847412108,587.5689694824218,1248.3699847412108Z" fill="#F7931A" fill-opacity="1"/></g></g></g></g></svg>