<svg xmlns="http://www.w3.org/2000/svg" xmlns:xlink="http://www.w3.org/1999/xlink" fill="none" version="1.1" width="737.77001953125" height="654.169921875" viewBox="0 0 737.77001953125 654.169921875"><defs><linearGradient x1="0.9844414591789246" y1="0.45781952142715454" x2="-0.0868402048945427" y2="0.6262587904930115" id="master_svg0_5_3907"><stop offset="0%" stop-color="#F4C571" stop-opacity="1"/><stop offset="57.9800009727478%" stop-color="#FAD787" stop-opacity="1"/><stop offset="100%" stop-color="#FFE799" stop-opacity="1"/></linearGradient><linearGradient x1="0.04931702837347984" y1="0.7501316666603088" x2="1.0136363506317139" y2="0.21491189301013947" id="master_svg1_5_3908"><stop offset="20.960000157356262%" stop-color="#E5810A" stop-opacity="1"/><stop offset="45.910000801086426%" stop-color="#EA9220" stop-opacity="0.8421000242233276"/><stop offset="97.53000140190125%" stop-color="#F8BD57" stop-opacity="0.5156000256538391"/><stop offset="100%" stop-color="#F9BF5A" stop-opacity="0.5"/></linearGradient><linearGradient x1="0.7509123682975769" y1="0.992668628692627" x2="0.27386876940727234" y2="0.0060570198111236095" id="master_svg2_5_3909"><stop offset="10.729999840259552%" stop-color="#FFDD92" stop-opacity="1"/><stop offset="50.700002908706665%" stop-color="#FFC45B" stop-opacity="1"/><stop offset="83.02000164985657%" stop-color="#FFB335" stop-opacity="1"/><stop offset="100%" stop-color="#FFAC27" stop-opacity="1"/></linearGradient><linearGradient x1="0.040311723947525024" y1="1.046855092048645" x2="0.9147523045539856" y2="0.006627294234931469" id="master_svg3_5_3910"><stop offset="0%" stop-color="#F1A43A" stop-opacity="1"/><stop offset="68.97000074386597%" stop-color="#FFC043" stop-opacity="1"/></linearGradient><linearGradient x1="0.5000729560852051" y1="1.0000213384628296" x2="0.5000729560852051" y2="0.00003499189188005403" id="master_svg4_5_3911"><stop offset="7.880000025033951%" stop-color="#FFE2A9" stop-opacity="1"/><stop offset="27.950000762939453%" stop-color="#FFD993" stop-opacity="1"/><stop offset="69.40000057220459%" stop-color="#FFC25C" stop-opacity="1"/><stop offset="100%" stop-color="#FFB02F" stop-opacity="1"/></linearGradient><linearGradient x1="0.5000039935112" y1="0.9999381303787231" x2="0.5000039935112" y2="-0.00006048941577319056" id="master_svg5_5_3913"><stop offset="7.880000025033951%" stop-color="#FFE2A9" stop-opacity="1"/><stop offset="27.950000762939453%" stop-color="#FFD993" stop-opacity="1"/><stop offset="69.40000057220459%" stop-color="#FFC25C" stop-opacity="1"/><stop offset="100%" stop-color="#FFB02F" stop-opacity="1"/></linearGradient><linearGradient x1="0.49997979402542114" y1="0.9999174475669861" x2="0.49997979402542114" y2="-0.00005151998266228475" id="master_svg6_5_3914"><stop offset="7.880000025033951%" stop-color="#FFE2A9" stop-opacity="1"/><stop offset="27.950000762939453%" stop-color="#FFD993" stop-opacity="1"/><stop offset="69.40000057220459%" stop-color="#FFC25C" stop-opacity="1"/><stop offset="100%" stop-color="#FFB02F" stop-opacity="1"/></linearGradient></defs><g><g><g><path d="M435.1600036621094,202.98001403808593C451.5800036621094,204.92001403808592,467.0200036621094,210.00001403808594,480.86000366210936,217.67001403808592L480.86000366210936,7.670014038085937C465.98000366210937,4.410014038085937,450.7200036621094,2.1900140380859376,435.1600036621094,1.0300140380859375L435.1600036621094,202.98001403808593Z" fill="#F9BF5A" fill-opacity="1"/></g><g><path d="M480.86000366210936,436.5000305175781C467.0300036621094,444.17001051757813,451.5800036621094,449.2500305175781,435.1600036621094,451.1900305175781L435.1600036621094,653.1700305175781C450.7200036621094,652.0300305175781,465.98000366210937,649.8200305175781,480.86000366210936,646.5700305175781L480.86000366210936,436.5000305175781Z" fill="#F4C571" fill-opacity="1"/></g><g><path d="M506.9599914550781,237.00000671386718C523.7099914550781,253.10000671386717,535.8999914550782,273.8100067138672,541.6399914550781,297.11000671386716L541.6399914550781,27.410006713867187C530.3899914550781,22.480006713867187,518.8299914550781,18.120006713867188,506.9599914550781,14.460006713867188L506.9599914550781,237.00000671386718Z" fill="#F9BF5A" fill-opacity="1"/></g><g><path d="M716.3499755859375,210.77001953125L716.3499755859375,443.67001953125C730.1399755859375,407.49001953125,737.7699755859375,368.27001953125,737.7699755859375,327.25001953125C737.7599755859375,286.21001953125,730.1399755859375,246.97001953125,716.3499755859375,210.77001953125Z" fill="#F9BF5A" fill-opacity="1"/></g><g><path d="M671.8699951171875,524.0600073242188C678.4199851171875,515.3800073242187,684.5699951171875,506.38000732421875,690.2499951171875,497.06000732421876L690.2499951171875,157.34000732421876C684.5699951171875,148.01000732421875,678.4199851171875,139.01000732421875,671.8699951171875,130.32000732421875L671.8699951171875,524.0600073242188Z" fill="#F9BF5A" fill-opacity="1"/></g><g><path d="M645.769970703125,99.89999633789063C638.209970703125,92.07999633789062,630.269960703125,84.63000633789062,621.969970703125,77.58999633789062L621.969970703125,576.7799963378907C630.269960703125,569.7499963378907,638.209970703125,562.2999963378907,645.769970703125,554.4899963378906L645.769970703125,99.89999633789063Z" fill="#F9BF5A" fill-opacity="1"/></g><g><path d="M541.6399914550781,357.0600280761719C535.8999914550782,380.3500280761719,523.7099914550781,401.0600280761719,506.9599914550781,417.1700280761719L506.9599914550781,639.7900280761719C518.8299914550781,636.1400280761718,530.3899914550781,631.8000280761719,541.6399914550781,626.8800280761718L541.6399914550781,357.0600280761719Z" fill="#F9BF5A" fill-opacity="1"/></g><g><path d="M409.07002197265626,452.1399841308594L341.20002197265626,452.1399841308594C305.17002197265623,452.1399841308594,275.96002197265625,481.34998413085935,275.96002197265625,517.3799841308594L275.96002197265625,654.1599841308594L409.0600219726563,654.1599841308594L409.0600219726563,452.1399841308594L409.07002197265626,452.1399841308594Z" fill="url(#master_svg0_5_3907)" fill-opacity="1"/></g><g><path d="M409.07,0L0.560013,0L0.560013,200.61L0,200.61L0,654.17L202.02,654.17L202.02,202.02L409.07,202.02L409.07,0Z" fill="#F9BF5A" fill-opacity="1"/></g><g><path d="M595.86998046875,57.58999145507812C586.79998046875,51.349991455078126,577.42999046875,45.53000145507812,567.72998046875,40.209991455078125L567.72998046875,614.1099914550781C577.42999046875,608.7999914550782,586.80998046875,602.9799914550781,595.86998046875,596.7499914550781L595.86998046875,57.58999145507812Z" fill="#F9BF5A" fill-opacity="1"/></g></g><g><path d="M409.0700128173828,202.02L194.3500128173828,202.02L0.5600128173828125,0L409.0700128173828,0L409.0700128173828,202.02Z" fill="url(#master_svg1_5_3908)" fill-opacity="1"/></g><g><path d="M202.02001281738282,588.9300402832031Q0.5600128173828125,535.8700402832031,0.5600128173828125,354.0700402832031Q0.5600128173828125,317.93004028320314,0.5600128173828125,0.010040283203125C111.82001281738282,0.010040283203125,202.02001281738282,90.21004028320313,202.02001281738282,201.47004028320313L202.02001281738282,588.9300402832031Z" fill="url(#master_svg2_5_3909)" fill-opacity="1"/></g><g><path d="M202.02001281738282,654.1700122070313L0.5600128173828125,654.1700122070313L0.5600128173828125,284.20001220703125Q32.29001281738282,538.7600122070312,202.02001281738282,553.1600122070313Q202.02001281738282,603.8400122070312,202.02001281738282,654.1700122070313Z" fill="url(#master_svg3_5_3910)" fill-opacity="1"/></g><g><g><path d="M414.6700134277344,347.8000183105469C438.5400134277344,347.8000183105469,459.3500134277344,357.62001831054687,470.6700134277344,372.2200183105469C480.6500134277344,359.8600183105469,486.6500134277344,344.1600183105469,486.6500134277344,327.0400183105469C486.6500134277344,287.2800183105469,454.4200134277344,255.05001831054688,414.6600134277344,255.05001831054688C374.9000134277344,255.05001831054688,342.6700134277344,287.2800183105469,342.6700134277344,327.0400183105469C342.6700134277344,344.1600183105469,348.6700134277344,359.87001831054687,358.6500134277344,372.2200183105469C369.99001342773437,357.62001831054687,390.80001342773437,347.8000183105469,414.6700134277344,347.8000183105469Z" fill="url(#master_svg4_5_3911)" fill-opacity="1"/></g><g><path d="M394.6000061035156,294.31C398.2599761035156,294.17,412.96000610351564,292,413.9300061035156,273.5Q415.8000061035156,293.57,434.7400061035156,292.83Q415.71000610351564,293.57,415.4100061035156,313.64C413.7900061035156,294.31,395.44003310351565,294.61,394.6000061035156,294.31Z" fill="#FFFFFF" fill-opacity="1"/></g><g><ellipse cx="414.6700019836426" cy="363.03000259399414" rx="62.5099983215332" ry="36.369998931884766" fill="url(#master_svg5_5_3913)" fill-opacity="1"/></g><g><path d="M378.1300354003906,389.4099936035156C382.33004540039065,391.53999360351565,391.54003540039065,398.53999360351565,414.67003540039065,399.3999936035156C441.4600354003906,399.3999936035156,464.7800354003906,384.73999360351564,477.18003540039064,363.0299936035156C464.7800354003906,341.3199736035156,396.9400354003906,328.1499936035156,378.1300354003906,389.4099936035156Z" fill="url(#master_svg6_5_3914)" fill-opacity="1"/></g></g></g></svg>